<svg width="57" height="15" viewBox="0 0 57 15" fill="none" xmlns="http://www.w3.org/2000/svg">
<path d="M12.1333 10.0703C12.1333 9.88835 12.0381 9.74235 11.8477 9.63232C11.6572 9.5223 11.2954 9.40804 10.7622 9.28955C10.229 9.17106 9.7889 9.0166 9.44189 8.82617C9.09489 8.63151 8.8304 8.39665 8.64844 8.12158C8.46647 7.84652 8.37549 7.53125 8.37549 7.17578C8.37549 6.54525 8.63574 6.02686 9.15625 5.62061C9.67676 5.21012 10.3581 5.00488 11.2002 5.00488C12.1058 5.00488 12.8337 5.21012 13.3838 5.62061C13.9339 6.03109 14.209 6.57064 14.209 7.23926H12.0635C12.0635 6.68913 11.7736 6.41406 11.1938 6.41406C10.9696 6.41406 10.7812 6.47754 10.6289 6.60449C10.4766 6.72721 10.4004 6.88167 10.4004 7.06787C10.4004 7.2583 10.4935 7.41276 10.6797 7.53125C10.8659 7.64974 11.1621 7.74707 11.5684 7.82324C11.9788 7.89941 12.3385 7.9904 12.6475 8.09619C13.68 8.45166 14.1963 9.08854 14.1963 10.0068C14.1963 10.6331 13.917 11.1431 13.3584 11.5366C12.804 11.9302 12.0846 12.127 11.2002 12.127C10.612 12.127 10.0872 12.0212 9.62598 11.8096C9.16471 11.598 8.80501 11.3102 8.54688 10.9463C8.28874 10.5824 8.15967 10.1994 8.15967 9.79736H10.1592C10.1676 10.1147 10.2734 10.3475 10.4766 10.4956C10.6797 10.6395 10.9399 10.7114 11.2573 10.7114C11.5493 10.7114 11.7673 10.6522 11.9111 10.5337C12.0592 10.4152 12.1333 10.2607 12.1333 10.0703ZM14.9326 8.50244C14.9326 7.81689 15.0659 7.20752 15.3325 6.67432C15.5991 6.13688 15.9821 5.72428 16.4814 5.43652C16.9808 5.14876 17.5669 5.00488 18.2397 5.00488C19.2681 5.00488 20.0785 5.32438 20.6709 5.96338C21.2633 6.59814 21.5596 7.46354 21.5596 8.55957V8.63574C21.5596 9.70638 21.2612 10.557 20.6646 11.1875C20.0721 11.8138 19.2681 12.127 18.2524 12.127C17.2749 12.127 16.4899 11.835 15.8975 11.251C15.305 10.6628 14.9855 9.86719 14.939 8.86426L14.9326 8.50244ZM17.0718 8.63574C17.0718 9.27051 17.1712 9.736 17.3701 10.0322C17.569 10.3285 17.8631 10.4766 18.2524 10.4766C19.0142 10.4766 19.4035 9.89046 19.4204 8.71826V8.50244C19.4204 7.271 19.0269 6.65527 18.2397 6.65527C17.5246 6.65527 17.1374 7.18636 17.0781 8.24854L17.0718 8.63574ZM24.7588 12H22.6133V2.25H24.7588V12ZM28.3389 12H26.1934V5.13184H28.3389V12ZM26.0664 3.36084C26.0664 3.05615 26.1764 2.80648 26.3965 2.61182C26.6165 2.41715 26.9022 2.31982 27.2534 2.31982C27.6047 2.31982 27.8903 2.41715 28.1104 2.61182C28.3304 2.80648 28.4404 3.05615 28.4404 3.36084C28.4404 3.66553 28.3304 3.9152 28.1104 4.10986C27.8903 4.30452 27.6047 4.40186 27.2534 4.40186C26.9022 4.40186 26.6165 4.30452 26.3965 4.10986C26.1764 3.9152 26.0664 3.66553 26.0664 3.36084ZM29.3926 8.51514C29.3926 7.42757 29.6274 6.57064 30.0972 5.94434C30.5669 5.31803 31.2228 5.00488 32.0649 5.00488C32.6785 5.00488 33.1948 5.24609 33.6138 5.72852V2.25H35.7593V12H33.8359L33.728 11.2637C33.2879 11.8392 32.7293 12.127 32.0522 12.127C31.2355 12.127 30.5881 11.8138 30.1099 11.1875C29.6317 10.5612 29.3926 9.67041 29.3926 8.51514ZM31.5317 8.64844C31.5317 9.86719 31.8872 10.4766 32.5981 10.4766C33.0721 10.4766 33.4106 10.2777 33.6138 9.87988V7.26465C33.4191 6.8584 33.0848 6.65527 32.6108 6.65527C31.9507 6.65527 31.5931 7.18848 31.5381 8.25488L31.5317 8.64844ZM40.8438 12C40.7676 11.8604 40.6999 11.6551 40.6406 11.3843C40.2471 11.8794 39.6969 12.127 38.9902 12.127C38.3428 12.127 37.7926 11.9323 37.3398 11.543C36.887 11.1494 36.6606 10.6564 36.6606 10.064C36.6606 9.31917 36.9357 8.75635 37.4858 8.37549C38.036 7.99463 38.8358 7.8042 39.8853 7.8042H40.5454V7.44238C40.5454 6.81185 40.2725 6.49658 39.7266 6.49658C39.2188 6.49658 38.9648 6.74626 38.9648 7.24561H36.8257C36.8257 6.58122 37.1071 6.04167 37.6699 5.62695C38.237 5.21224 38.9585 5.00488 39.8345 5.00488C40.7104 5.00488 41.4023 5.21859 41.9102 5.646C42.418 6.0734 42.6782 6.65951 42.6909 7.4043V10.4448C42.6994 11.0754 42.7967 11.5578 42.9829 11.8921V12H40.8438ZM39.5044 10.6035C39.771 10.6035 39.991 10.5464 40.1646 10.4321C40.3423 10.3179 40.4692 10.1888 40.5454 10.0449V8.94678H39.9233C39.1785 8.94678 38.8062 9.28109 38.8062 9.94971C38.8062 10.1444 38.8717 10.3031 39.0029 10.4258C39.1341 10.5443 39.3013 10.6035 39.5044 10.6035ZM48.0356 7.06787L47.3311 7.01709C46.6582 7.01709 46.2266 7.22868 46.0361 7.65186V12H43.897V5.13184H45.9028L45.9727 6.01416C46.3324 5.34131 46.8338 5.00488 47.4771 5.00488C47.7056 5.00488 47.9045 5.03027 48.0737 5.08105L48.0356 7.06787ZM51.6665 9.00391L52.8091 5.13184H55.1006L52.3013 13.1489L52.1807 13.4409C51.7829 14.3296 51.0804 14.7739 50.0732 14.7739C49.7939 14.7739 49.4998 14.7316 49.1909 14.647V13.1172H49.4702C49.7707 13.1172 49.9992 13.0728 50.1558 12.9839C50.3166 12.8993 50.4351 12.7448 50.5112 12.5205L50.6826 12.0635L48.2959 5.13184H50.5811L51.6665 9.00391Z" fill="#FD9434"/>
<circle cx="3.55555" cy="4.44444" r="3.44444" fill="#FD9434"/>
<path d="M3.44757 11.9354L0.540526 6.15748L6.5119 6.23934L3.44757 11.9354Z" fill="#FD9434"/>
<circle cx="3.5" cy="4.5" r="1.5" fill="white"/>
</svg>
